<svg xmlns="http://www.w3.org/2000/svg"  viewBox="0 0 64 64" width="64px" height="64px"><g id="Layer_2"><radialGradient id="SVGID_1_" cx="32" cy="807.39" r="68.686" gradientTransform="translate(0 -775.89)" gradientUnits="userSpaceOnUse"><stop offset="0" stop-color="#afeeff"/><stop offset=".193" stop-color="#bbf1ff"/><stop offset=".703" stop-color="#d7f8ff"/><stop offset="1" stop-color="#e1faff"/></radialGradient><path fill="url(#SVGID_1_)" d="M60.5,30c2,0,3.6-1.7,3.5-3.7c-0.1-1.9-1.8-3.3-3.7-3.3h-0.8c-0.8,0-1.5-0.7-1.5-1.5s0.7-1.5,1.5-1.5h0.8 c1.9,0,3.6-1.4,3.7-3.3c0.1-2-1.5-3.7-3.5-3.7h-1.4c-1,0-1.9-0.7-2.1-1.7C56.8,10.1,57.8,9,59,9h0.3c1.9,0,3.6-1.4,3.7-3.3 c0.1-2-1.5-3.7-3.5-3.7H4.7C2.8,2,1.1,3.4,1,5.3C0.9,7.3,2.5,9,4.5,9h0.4c1,0,1.9,0.7,2.1,1.7C7.2,11.9,6.2,13,5,13H3.7 c-1.9,0-3.6,1.4-3.7,3.3c-0.1,2,1.5,3.7,3.5,3.7C4.3,20,5,20.7,5,21.5S4.3,23,3.5,23h0.2c-1.9,0-3.6,1.4-3.7,3.3 c-0.1,2,1.5,3.7,3.5,3.7l0,0C4.3,30,5,30.7,5,31.5l0,0C5,32.3,4.3,33,3.5,33l0,0c-2,0-3.6,1.7-3.5,3.7C0.1,38.6,1.8,40,3.7,40h0.8 C5.3,40,6,40.7,6,41.5C6,42.3,5.3,43,4.5,43H3.7c-1.9,0-3.6,1.4-3.7,3.3c-0.1,2,1.5,3.7,3.5,3.7h1.4c1,0,1.9,0.7,2.1,1.7 C7.2,52.9,6.2,54,5,54H4.7c-1.9,0-3.6,1.4-3.7,3.3c-0.1,2,1.5,3.7,3.5,3.7h54.8c1.9,0,3.6-1.4,3.7-3.3c0.1-2-1.5-3.7-3.5-3.7H59 c-1.1,0-2-0.9-2-2l0,0c0-1.1,0.9-2,2-2h1.3c1.9,0,3.6-1.4,3.7-3.3c0.1-2-1.5-3.7-3.5-3.7c-0.8,0-1.5-0.7-1.5-1.5l0,0 c0-0.8,0.7-1.5,1.5-1.5h-0.2c1.9,0,3.6-1.4,3.7-3.3c0.1-2-1.5-3.7-3.5-3.7l0,0c-0.8,0-1.5-0.7-1.5-1.5l0,0C59,30.7,59.7,30,60.5,30 L60.5,30z"/></g><g id="Layer_1"><linearGradient id="SVGID_00000109748412333887275280000007223835017351300246_" x1="6.521" x2="39.461" y1="24.521" y2="57.461" gradientUnits="userSpaceOnUse"><stop offset="0" stop-color="#155cdc"/><stop offset=".278" stop-color="#1e7fe3"/><stop offset=".569" stop-color="#279ae9"/><stop offset=".82" stop-color="#2eaded"/><stop offset="1" stop-color="#2fb3ee"/></linearGradient><path fill="url(#SVGID_00000109748412333887275280000007223835017351300246_)" d="M4.8,33.8l18.6,18.6 c1.6,1.6,4.1,1.6,5.7,0l8.2-8.2L15.8,22.8c-1.6-1.6-4.1-1.6-5.7,0l-5.3,5.3C3.3,29.7,3.3,32.3,4.8,33.8z"/><linearGradient id="SVGID_00000114770651760825295310000015281506525484352437_" x1="82.797" x2="21.738" y1="-12.544" y2="48.515" gradientUnits="userSpaceOnUse"><stop offset="0" stop-color="#155cdc"/><stop offset=".278" stop-color="#1e7fe3"/><stop offset=".569" stop-color="#279ae9"/><stop offset=".82" stop-color="#2eaded"/><stop offset="1" stop-color="#2fb3ee"/></linearGradient><path fill="url(#SVGID_00000114770651760825295310000015281506525484352437_)" d="M28.8,52.4L59.3,22c1.6-1.6,1.6-4.1,0-5.7 L54,11c-1.6-1.6-4.1-1.6-5.7,0L15,44.3l8.2,8.2C24.7,54,27.3,54,28.8,52.4z"/></g></svg>