<?xml version="1.0" standalone="no"?>
<!DOCTYPE svg PUBLIC "-//W3C//DTD SVG 20010904//EN"
 "http://www.w3.org/TR/2001/REC-SVG-20010904/DTD/svg10.dtd">
<svg version="1.0" xmlns="http://www.w3.org/2000/svg"
 width="256.000000pt" height="256.000000pt" viewBox="0 0 256.000000 256.000000"
 preserveAspectRatio="xMidYMid meet">

<g transform="translate(0.000000,256.000000) scale(0.100000,-0.100000)"
fill="#000000" stroke="none">
<path d="M607 1452 c-113 -114 -137 -144 -137 -168 0 -24 45 -74 308 -336 257
-258 312 -308 335 -308 20 0 43 14 80 49 29 27 45 49 36 48 -8 -1 -88 68 -177
153 l-162 156 112 118 111 118 -154 154 c-131 132 -158 154 -184 154 -26 0
-51 -21 -168 -138z"/>
</g>
</svg>
